<?xml version="1.0" encoding="UTF-8"?>
<svg width="108px" height="108px" viewBox="0 0 512 512" version="1.1" xmlns="http://www.w3.org/2000/svg" xmlns:xlink="http://www.w3.org/1999/xlink">
    <title>Group</title>
    <g id="Black/Green" stroke="none" stroke-width="1" fill="none" fill-rule="evenodd">
        <g id="Group">
            <rect id="Background" fill="#000000" x="0" y="0" width="1024" height="1024"></rect>
            <path d="M414,98 L312.311665,98.2124344 L255.999225,154.523048 L199.688335,98.2124344 L98,98 L98.2093342,199.687836 L154.521775,255.998449 L98.2093342,312.310614 L98,414 L199.688335,413.787566 L255.999225,357.476952 L312.311665,413.787566 L414,414 L413.789115,312.309063 L357.476674,255.998449 L413.789115,199.689386 L414,98 Z M325.139783,130.114623 L381,130 L380.883828,185.857119 L311.240947,255.498451 L380.883828,325.142881 L381,381 L325.139783,380.882279 L255.498451,311.242496 L185.857119,380.882279 L130,381 L130.114623,325.141332 L199.755955,255.498451 L130.114623,185.857119 L130,130 L185.857119,130.114623 L255.498451,199.757504 L325.139783,130.114623 Z" id="Fill-1" fill="#1CFEBA"></path>
        </g>
    </g>
</svg>
