<svg width="216" height="216" viewBox="0 0 216 216" fill="none" xmlns="http://www.w3.org/2000/svg">
<path d="M2.41873 105.595C1.01073 106.171 0.0507345 107.579 0.0507345 109.051C0.0507346 110.587 1.01073 111.995 2.41873 112.571L39.7307 127.483C40.1787 127.675 40.6267 127.739 41.1387 127.739C42.9947 127.739 44.8507 126.203 44.8507 124.027C44.8507 122.555 43.9547 121.147 42.4827 120.571L35.5067 117.755L35.5067 100.411L42.4827 97.5951C43.9547 97.0191 44.8507 95.6111 44.8507 94.1391C44.8507 91.8991 43.0587 90.4271 41.1387 90.4271C40.6907 90.4271 40.1787 90.4911 39.7307 90.6831L2.41873 105.595ZM28.0827 114.747L13.8107 109.051L28.0827 103.419L28.0827 114.747Z" fill="black"/>
<path d="M68.3145 58.6872C69.6309 57.1184 69.3768 54.7329 67.857 53.4576L39.2253 29.4328C37.6564 28.1164 35.3121 28.3215 33.9957 29.8903C32.6381 31.5082 32.8432 33.8525 34.4121 35.1689L53.9738 51.5832L20.3704 48.6175C19.1335 48.4986 17.9517 49.0108 17.2112 49.8933C15.7714 51.6092 16.1568 53.9377 17.6276 55.1719L46.2593 79.1967C47.8282 80.5132 50.1725 80.3081 51.4889 78.7392C52.8053 77.1703 52.6413 74.777 51.0725 73.4606L31.5108 57.0464L65.1142 60.012C66.3511 60.131 67.5329 59.6187 68.3145 58.6872Z" fill="black"/>
<path d="M95.2141 47.8367C95.4662 47.7922 113.944 44.599 110.044 22.4763C106.143 0.353569 87.6868 3.67285 87.4346 3.7173L76.7199 5.60659C74.7031 5.96223 73.3533 7.8899 73.7089 9.90679L80.1992 46.715C80.5548 48.7318 82.4825 50.0816 84.4994 49.726L95.2141 47.8367ZM81.7389 12.3251L88.7349 11.0915C88.798 11.0804 91.5823 10.6545 94.6556 11.8672C98.9115 13.5213 101.569 17.5368 102.669 23.7766C103.747 29.8903 102.686 34.5615 99.442 37.5381C96.928 39.866 94.1029 40.4291 93.9138 40.4625L86.9177 41.696L81.7389 12.3251Z" fill="black"/>
<path d="M154.226 44.3211C156.917 44.3966 159.572 43.6384 162.048 42.0379C165.272 39.909 167.056 36.948 167.248 36.6154C170.256 31.4054 170.176 26.0388 167.101 21.3812C164.917 18.1247 162.011 16.3732 161.679 16.1812L152.866 11.0932C151.092 10.0692 148.819 10.6783 147.795 12.4519L129.107 44.8205C128.083 46.5941 128.692 48.8672 130.466 49.8912C132.24 50.9152 134.568 50.3381 135.592 48.5645L141.192 38.865L146.624 42.001L147.182 57.5467C147.247 58.8409 147.98 60.0032 149.089 60.6432C149.643 60.9632 150.349 61.1489 151.04 61.1044C152.389 61.0707 153.552 60.3376 154.16 59.2845C154.512 58.6748 154.665 58.0246 154.653 57.2783L154.226 44.3211ZM152.392 19.466L157.935 22.666C157.935 22.666 159.708 23.69 160.891 25.4814C162.389 27.7505 162.363 30.1001 160.763 32.8714C160.699 32.9823 159.619 34.7239 157.773 35.8747C155.568 37.262 153.25 37.1802 150.479 35.5802L144.936 32.3802L152.392 19.466Z" fill="black"/>
<path d="M177.595 95.1072L171.86 79.3505L182.384 75.5199L186.85 87.7885C187.55 89.713 189.683 90.7075 191.607 90.007C193.532 89.3066 194.526 87.1738 193.826 85.2493L189.361 72.9807L199.885 69.1501L205.62 84.9068C206.342 86.8915 208.475 87.886 210.46 87.1636C212.384 86.4632 213.379 84.3304 212.657 82.3458L205.652 63.1009C204.93 61.1163 202.797 60.1217 200.872 60.8222L165.75 73.6055C163.826 74.306 162.831 76.4388 163.554 78.4234L170.558 97.6683C171.281 99.6529 173.413 100.647 175.338 99.947C177.323 99.2246 178.317 97.0919 177.595 95.1072Z" fill="black"/>
<path d="M205.561 149.385C207.082 149.325 208.465 148.331 208.969 146.947C209.494 145.504 209.073 143.853 207.947 142.83L177.986 116.056C177.63 115.722 177.231 115.509 176.75 115.334C175.006 114.699 172.737 115.507 171.993 117.552C171.489 118.935 171.849 120.565 173.036 121.61L178.628 126.642L172.696 142.94L165.177 143.2C163.597 143.238 162.274 144.254 161.77 145.638C161.004 147.743 162.185 149.739 163.989 150.395C164.41 150.549 164.913 150.664 165.399 150.636L205.561 149.385ZM184.575 132.007L196.039 142.241L180.701 142.652L184.575 132.007Z" fill="black"/>
<path d="M132.089 168.333C130.315 169.357 129.651 171.662 130.675 173.435C131.731 175.264 134.059 175.841 135.833 174.817L147.14 168.289L163.94 197.388C164.964 199.161 167.237 199.77 169.01 198.746C170.839 197.69 171.449 195.417 170.425 193.644L151.737 161.275C150.713 159.502 148.439 158.893 146.61 159.949L132.089 168.333Z" fill="black"/>
<path d="M96.4276 171.538C94.4107 171.182 92.483 172.532 92.1274 174.549L85.6371 211.357C85.2815 213.374 86.6313 215.302 88.6482 215.657C90.665 216.013 92.5927 214.663 92.9484 212.646L99.4386 175.838C99.7943 173.821 98.4445 171.894 96.4276 171.538Z" fill="black"/>
<path d="M50.8654 139.679C49.5489 138.11 47.1556 137.946 45.6358 139.221L17.0041 163.246C15.4353 164.562 15.2302 166.907 16.5466 168.475C17.9042 170.093 20.2485 170.298 21.8173 168.982L41.379 152.568L32.6232 185.146C32.2913 186.343 32.5906 187.596 33.3311 188.478C34.7709 190.194 37.131 190.219 38.6018 188.985L67.2335 164.96C68.8023 163.644 69.0074 161.299 67.691 159.731C66.3746 158.162 63.9891 157.908 62.4203 159.224L42.8586 175.638L51.6144 143.06C51.9463 141.863 51.647 140.61 50.8654 139.679Z" fill="black"/>
</svg>
